<?xml version="1.0" encoding="utf-8"?>
<!-- Generator: Adobe Illustrator 26.2.1, SVG Export Plug-In . SVG Version: 6.00 Build 0)  -->
<svg version="1.0" id="Шар_1" xmlns="http://www.w3.org/2000/svg" xmlns:xlink="http://www.w3.org/1999/xlink" x="0px" y="0px"
	 viewBox="0 0 183.2 95.5" style="enable-background:new 0 0 183.2 95.5;" xml:space="preserve">
<style type="text/css">
	.st0{fill:#FFFFFF;}
</style>
<g>
	<path class="st0" d="M126.8,62.2c-0.4-0.3-0.8-0.4-1.2-0.4c-0.5,0-0.9,0.2-1.2,0.3c-0.5,0.2-1,0.4-1.6,0.6c0-0.1,0-0.1,0-0.2
		c0-0.3,0.1-0.5,0.2-0.8c0.1-0.5,0.2-1,0.3-1.5c0.5-2.3,0.9-4.7,1.6-7c0.7,0.1,1.3,0.1,2,0.2c0.3,0,0.5,0,0.8,0.1l0.1,0l0.1,0l0.3,0
		c1.5,0,3-0.1,4.6-0.9c1.2-0.6,1.9-1.6,2.1-2.7c0.2-1.1-0.3-2.3-1.3-3.2c-0.5-0.5-1.1-0.9-1.7-1.1c-1.3-0.5-2.5-0.7-3.7-0.7
		c-2.1,0-4,0.8-5.6,2.3c0,0,0,0,0,0l-1.2-0.7c-2.3-1.4-4.7-2.9-7.2-4.2c-4-2-7.5-3-11-3c-0.8,0-1.7,0.1-2.5,0.2
		c-7.4,1-12.8,7.4-12.4,14.5c0.1,2.5,1,4.4,2.6,5.8c0.5,0.4,1,0.6,1.5,0.6c0.5,0,1-0.2,1.4-0.6c0.6-0.5,0.7-1,0.7-1.3
		c0-0.8-0.5-1.3-0.7-1.5l0,0c-0.3-0.3-0.5-0.7-0.2-1.5c0.3-0.9,0.9-1.7,1.8-2.4c2.2-1.7,4.9-2.5,8.2-2.5c0.6,0,1.2,0,1.9,0.1
		c3.7,0.3,7.4,0.9,11,1.5c0.8,0.1,1.5,0.3,2.3,0.4c-1.8,3.1-3.1,6.5-4.5,9.7l0,0.1c-0.9-0.2-1.8-0.3-2.5-0.3c-0.2,0-0.5,0-0.7,0
		c-2.6,0.1-4,1.7-4.8,2.9c-0.7,1.1-0.5,1.9-0.2,2.5c0.4,0.6,0.9,0.9,1.6,0.9c0.2,0,0.4,0,0.6-0.1l0.1,0c1.1-0.2,2.3-0.3,3.5-0.3
		c-0.2,0.4-0.4,0.9-0.6,1.3c-0.4,1-0.9,2.1-1.4,3c-1.4,2.9-3.1,5.9-5.8,8.2c-1.6,1.4-3.8,2.2-6.1,2.2c-2.6,0-4.9-0.9-6.4-2.6
		c-1-1.1-1.3-2.1-0.7-3.3c0.6-1.2,1.6-1.9,3-1.9l0.1,0c1.3,0,2.6,0.5,3.8,1l0.1,0c0.2,0.1,0.6,0.3,1,0.3c0.5,0,1-0.3,1.4-0.7
		c0.3-0.4,0.7-1.4-0.5-2.6c-0.4-0.3-0.8-0.5-1-0.7c-1-0.5-2-0.8-3.2-0.9c-0.7-0.1-1.4-0.1-2.1-0.1c-3.1,0-5.7,1-7.8,2.9
		c-2.1,1.9-3.3,5.4-3.1,8.8c0.2,3.5,1.9,6.5,4.6,8.4c3.4,2.4,7.2,3.6,11.2,3.6c2.8,0,5.8-0.6,8.8-1.8c4.1-1.6,7.2-4.7,9.9-9.7
		c2.6-4.8,3.9-9.9,4.8-14.2c0,0,0,0,0-0.1c0,0,0,0,0.1,0c0.2,0,0.3,0,0.5,0c3.1,0,5-1.6,5.5-4.7C127.6,64.1,127.8,63,126.8,62.2z
		 M128.4,49l0.2,0c0.6,0.1,1.2,0.1,1.6,0.3c0.1,0.1,0.3,0.1,0.5,0.2c-0.1,0-0.2,0.1-0.4,0.1c-0.3,0.1-0.6,0.1-1,0.1
		c-0.1,0-0.3,0-0.4,0.1c-0.6,0-1.3-0.2-1.9-0.4c0.5-0.4,0.9-0.5,1.2-0.5C128.3,49,128.3,49,128.4,49z"/>
	<path class="st0" d="M52.6,43.6c-1-0.8-1.4-2-1.8-3.5c-0.7-2.9-0.8-5.9-0.8-8.2c0-3.5,0.3-7.1,1-11.1c0.6-3.4,1.3-6.2,2.3-8.7
		c0.7,0.1,1.5,0.2,2.4,0.2c0.1,0,0.3,0,0.4,0c1.3,0,3.1-0.1,4.8-1c1.6-0.8,2.1-2,2.2-2.9c0.4-3-1.4-6-4.4-6.9
		c-0.8-0.2-1.6-0.4-2.4-0.4c-1.4,0-2.8,0.4-4.1,1.2c-1.3,0.8-2.4,1.8-3.3,3.1c-1.1-0.7-2.2-1.3-3.6-2c-3.7-1.9-6.8-2.8-10-2.9
		c-0.1,0-0.3,0-0.4,0c-3.3,0-5.8,0.8-7.9,2.5c-2.2,1.7-3.4,4.4-3.2,7c0.2,2.5,1.5,4.8,3.7,6.1c0.4,0.3,0.9,0.4,1.3,0.4
		c0.7,0,1.3-0.3,1.7-0.9c0.5-0.6,0.4-1.2,0.3-1.5c-0.2-0.8-0.9-1-1.2-1.2l0,0c-0.5-0.3-0.7-0.7-0.8-0.9c0-0.3,0.2-0.7,0.6-1.1
		c0.3-0.3,0.7-0.6,1.2-0.9C32.1,9.3,33.5,9,35.1,9c0.1,0,0.2,0,0.3,0c3,0.1,5.8,0.7,8.8,1.4c-2.9,1.4-5,3.5-6.8,5.5
		c-2.9,3.2-5.3,6.6-7.7,10.1c0,0.1-0.1,0.1-0.1,0.1c0,0,0,0-0.1,0c-2.5-0.7-5.2-0.9-7.4-0.9l-0.1,0c-1,0-1.8,0.4-2.3,1.2
		c-0.5,0.7-0.8,1.5-0.9,2.3c-0.1,0.4-0.2,1.3,0.3,2c0.6,0.7,1.5,0.8,1.9,0.8c1.4,0.1,2.9,0.2,4.5,0.4c-1.6,2.1-3.4,4.4-5.6,6.3
		c-1.9,1.7-3.8,2.5-6,2.5c-0.9,0-1.8-0.1-2.7-0.4c-2-0.6-3.2-1.8-3.6-3.6c-0.1-0.4-0.1-0.8-0.2-1.3c0-0.2,0-0.5-0.1-0.7
		c0-1.3-0.8-1.6-1.2-1.7c-0.2,0-0.3-0.1-0.5-0.1c-0.8,0-1.3,0.5-1.5,0.8c-0.6,0.6-0.6,1.3-0.6,1.7c-0.1,3.1,0.5,5.9,1.6,8.5
		c1.9,4.3,5,6.6,9,6.8c0.2,0,0.4,0,0.6,0c1.8,0,3.6-0.4,5.3-1.1c4.2-1.7,7.2-4.9,9.3-7.4c2.2-2.6,3.9-5.4,5.3-7.7
		c2.3,0.9,4,1.8,5.6,2.6c-0.1,1.9-0.1,3.7,0,5.5l0,0.2c0.1,2,0.3,4.1,1.1,6c0.4,0.9,1.1,2.1,2.8,2.1c0.3,0,0.7,0,1.1-0.1
		c2.3-0.5,4.4-1.6,6.4-3.1c0.6-0.4,1-0.9,1.2-1.4C53.7,45,53.2,44.1,52.6,43.6z M43.1,19.3c0,0.1-0.1,0.2-0.1,0.3
		c-1,3.8-1.6,7.4-2,10.9c-0.9-0.5-2-1-3.2-1.5c0.7-1.2,1.3-2.4,1.9-3.6C40.8,23.3,41.9,21.3,43.1,19.3z"/>
	<path class="st0" d="M181.1,46.9c-1.4-1-3.1-1.6-4.9-1.7c-0.1,0-0.2,0-0.2,0c-0.6,0-1.8,0.2-2.2,1.7c-0.2,0.8-0.5,1.5-0.8,2.3
		c-0.2,0.7-0.5,1.4-0.7,2.1c-1.2,3.5-2.2,7.1-3,10.5c-0.6-0.3-1.3-0.4-2-0.4c-0.3,0-0.6,0-1,0.1c-3.1,0.5-5.6,2.2-7.5,5.4
		c-0.1,0.1-0.1,0.2-0.2,0.3c-0.2,0.4-0.3,0.5-0.3,0.5c-0.5,0.1-0.8,0.4-1,0.6c0-0.1,0-0.1,0-0.2c0.1-2-0.5-3.8-1.6-5.1
		c-1-1.1-2.3-1.6-3.9-1.6c-0.8,0-1.6,0.1-2.4,0.4c-2.6,0.9-4.6,2.6-6.2,5.4c0,0.1-0.1,0.2-0.1,0.2c-0.5,0.2-0.9,0.6-1.2,1
		c0-0.5,0-1.1,0-1.6c-0.3-3.3-2.5-5.4-5.4-5.4l-0.2,0c-1.2,0-2.3,0.3-3.4,0.9c-4.2,2.1-6.9,6.8-6.5,11.5c0.2,2.7,1.2,4.7,2.9,6.2
		c1.2,1,2.6,1.5,4,1.5c1.6,0,3.1-0.7,4.3-1.8c0.7-0.7,1.3-1.5,1.7-2.4c0.3,0.1,0.6,0.1,0.8,0.1c0.8,0,1.5-0.2,2.2-0.7
		c0.4,0.9,0.9,1.8,1.5,2.5c1.3,1.5,3,2.3,4.7,2.3c1.7,0,3.3-0.7,4.6-2.1c0.6-0.7,1.1-1.4,1.5-2.1c0.3,0,0.5,0.1,0.8,0.1
		c0.8,0,1.6-0.2,2.3-0.7c0.2,0.5,0.4,1,0.7,1.5c1.4,2.2,3.3,3.3,5.6,3.3c0.1,0,0.2,0,0.2,0c1.9-0.1,3.1-1,4-2.1c0,0,0,0.1,0.1,0.1
		c0.7,1.7,2,2.5,3.7,2.5c0.2,0,0.4,0,0.6,0c2.2-0.2,4-1.5,5.3-3.7c1.4-2.5,1.9-5.3,2.4-7.9l0.2-0.9c0.1-0.8-0.2-1.5-0.9-1.9
		c-0.4-0.2-0.7-0.3-1.2-0.3c-1.3,0-2.5,0.9-2.8,2.1l-0.1,0.5c-0.1,0.6-0.3,1.2-0.4,1.8c-0.2,0.9-0.5,1.8-0.9,2.7
		c0-0.4,0.1-0.9,0.2-1.3c0.8-3.8,2-7.5,3.5-11.5c0.7-2,1.4-4,2.2-5.9c0.6-1.7,1.2-3.4,1.8-5.1l0-0.1C182.1,49.8,182.7,48,181.1,46.9
		z M168,68.3c-0.1,0.2-0.1,0.5-0.2,0.7c-0.7,2.6-1.3,5.1-3.1,7c0,0-0.1,0.1-0.1,0.1c0-3.7,0.9-6.3,2.8-8.2c0.2-0.2,0.4-0.4,0.5-0.4
		c0,0.1,0,0.1,0,0.2C168,67.8,168,68.1,168,68.3z M149.6,76.2c-0.1,0.1-0.3,0.1-0.4,0.2c0-0.1,0-0.1,0-0.2c0-0.1,0-0.2,0-0.3
		c0.1-1.4,0.3-2.8,0.7-4.2c0.3,1,0.6,2.1,1.2,3.2c-0.5,0.6-0.9,1-1.4,1.3L149.6,76.2z M133.9,76.3c-0.1-1.7,0.1-3.3,0.6-4.7
		c0.3,1.2,0.7,2.3,1.2,3.2C135.2,75.5,134.6,76,133.9,76.3z"/>
	<path class="st0" d="M87.5,43c0.9-2.9,1.7-5.8,2.5-8.6c0.2-0.7,0.4-1.5,0.6-2.2c0.7,2.5,2.4,4.5,5.1,5.8c1,0.5,2.1,0.7,3.1,0.7
		c2.1,0,4.3-0.9,6.2-2.7c0.2-0.2,0.4-0.4,0.5-0.6c0,0.1,0.1,0.2,0.1,0.3c0.7,1.9,2.2,3,4.1,3c0.3,0,0.5,0,0.8-0.1
		c1.7-0.3,3.2-1.2,4.3-2.7c0.1-0.2,0.2-0.3,0.3-0.5c1.6,1.9,3.1,2.8,4.8,2.8c1.5,0,2.9-0.8,4.2-2.2c0.8,1.6,2.1,2.2,3.1,2.5
		c0.7,0.2,1.4,0.3,2,0.3c1.9,0,3.5-0.7,4.8-2.2c0.9-1,1.6-2.2,2.2-3.8c0.7-1.9,1-3.8,1.4-5.9c0.1-0.7,0.2-1.6-0.4-2.2
		c-0.3-0.3-0.7-0.7-1.5-0.7c-0.3,0-0.7,0.1-1.1,0.2c-1.4,0.4-1.7,1.6-1.8,2.1c-0.4,1.9-0.8,3.4-1.4,4.7c0.5-2.5,1.3-5,2.1-7.4
		l0.3-0.8c0.5-1.5,0-2.6-1.3-3.4c-1.3-0.7-2.6-1.2-4-1.4c-0.3,0-0.5-0.1-0.7-0.1c-0.8,0-1.4,0.3-1.8,0.8c-0.8-0.4-1.6-0.6-2.5-0.6
		c-0.8,0-1.6,0.2-2.5,0.5c-2.6,0.9-4.6,2.7-6.1,5.5c0,0.1-0.1,0.1-0.1,0.2c-0.8,0.3-1.3,0.9-1.5,1.9c-0.3,1.7-0.7,3-1.2,4.3
		c-0.1,0.2-0.2,0.5-0.3,0.7c0-0.3,0.1-0.5,0.1-0.8c0.5-2.9,1.4-5.7,2.4-8.5c1.6-4.7,3.4-9.5,5.1-14.1l0.3-0.9
		c0.2-0.6,0.8-2.1-0.7-3.2c-1.5-1-3.1-1.6-4.9-1.8c-0.1,0-0.2,0-0.3,0c-0.8,0-1.8,0.3-2.3,1.7c-2.7,7.6-4.5,14.1-5.6,20.3
		c0-0.9-0.3-1.8-0.6-2.6c-0.9-2-2.6-3.1-4.8-3.1c-1.3,0-2.5,0.3-3.6,0.9c-1.2,0.7-2.3,1.5-3.2,2.5c-0.2-0.6-0.6-1-1.2-1.4
		c-1.3-0.8-2.8-1.4-4.4-1.6c-0.2,0-0.4,0-0.6,0c-0.7,0-1.2,0.2-1.7,0.6c-0.9-0.6-1.9-1-3-1c-0.3,0-0.6,0-1,0.1
		c-3.3,0.5-5.8,2.4-7.7,5.8c-0.1,0.1-0.1,0.2-0.2,0.3c-0.7,0.3-1,0.7-1.2,1.2c0.3-2-0.1-3.9-1.2-5.3c-1-1.2-2.5-1.9-4.2-2
		c-0.1,0-0.2,0-0.3,0c-1.2,0-2.3,0.4-3.4,1.2c0,0,0,0,0,0c-1.1-0.7-2.4-1.2-3.9-1.4c-0.4-0.1-0.6-0.1-0.9-0.1c-1.6,0-2,1.3-2.3,2
		c-1.3,4-1.8,8.1-2.3,12.1c-0.1,0.7-0.2,1.5-0.3,2.2c-0.2,1.3,0.3,2.3,1.4,3.1c1,0.7,2,1.1,3.1,1.2c0.3,0,0.5,0,0.7,0
		c1.4,0,2.2-0.8,2.5-2.4c0.4-3.2,1.1-6.4,2.2-9.9c0.2-0.6,0.5-1.1,1-1.6c-0.1,0.4-0.3,0.8-0.4,1.2c-0.3,0.8-0.5,1.6-0.8,2.5
		c-0.5,1.9-1,4.1-0.7,6.4c0.3,2.2,1.7,3.7,3.9,4c0.5,0.1,1,0.1,1.4,0.1c2.3,0,4.2-1,5.6-2.9c0.1-0.1,0.2-0.3,0.3-0.5
		c1,1.3,2.6,2.8,4.9,2.8c0.4,0,0.9-0.1,1.4-0.2l0,0.1c-0.3,1.5-0.6,3.1-1,4.6c-0.2,1-0.5,2.2-1.1,3.2c-0.4,0.7-0.7,0.7-0.9,0.7
		c-0.2,0-0.4-0.1-0.7-0.2c-0.8-0.3-1.3-0.9-1.8-1.9l0-0.1c-0.4-1.1-1.1-1.3-1.7-1.3c-0.1,0-0.2,0-0.2,0c-0.9,0.1-1.7,0.8-1.9,1.7
		c-0.1,0.4-0.1,0.7-0.1,0.9c0.1,2.1,0.6,3.9,1.4,5.5c1,2.1,2.8,3.2,5.1,3.2c0.3,0,0.6,0,0.8-0.1c2.1-0.3,3.9-1.4,5.4-3.6
		C85.6,48.4,86.6,45.6,87.5,43z M100.4,24.5c0,0,0.1-0.1,0.1-0.1c0,0,0,0.1,0,0.2c0,0.6-0.2,1.1-0.6,1.5c-0.4,0.4-0.8,0.6-1.4,0.7
		C99.1,25.7,99.7,25,100.4,24.5z M120.8,32.3c-0.2,0.3-0.5,0.6-0.7,0.8c0-0.1,0-0.1,0-0.2c0-0.1,0-0.1,0-0.2c0.2-2.4,0.6-5,2.2-7.1
		c0.4-0.5,0.8-0.9,1.2-1.1c-0.1,1.1-0.3,2.2-0.6,3.2C122.5,29.5,121.8,31,120.8,32.3z M135.7,26.4c0,0,0-0.1,0-0.1
		C135.7,26.4,135.7,26.4,135.7,26.4z M135.7,25.9C135.7,25.9,135.7,25.9,135.7,25.9C135.7,25.9,135.7,25.9,135.7,25.9z M135.5,25.7
		C135.4,25.7,135.4,25.7,135.5,25.7C135.4,25.7,135.4,25.7,135.5,25.7z M102.8,30.6c-1,1.5-2.1,2.3-3.6,2.3c0,0,0,0,0,0
		c-0.7,0-1.1-0.2-1.4-0.8c0,0,0.1,0,0.1,0c2.5-0.3,4.8-1.8,6.1-3.9C103.7,29,103.3,29.8,102.8,30.6z M82.9,25.3
		c-0.1,0.3-0.2,0.7-0.3,1c-0.7,2.5-1.3,4.9-3,6.7c0,0-0.1,0.1-0.1,0.1c0-3.4,0.8-6,2.5-8c0,0,0,0,0.1-0.1l0.2-0.2
		c0.1-0.1,0.3-0.3,0.5-0.4c0,0.1,0,0.1,0,0.2C82.8,24.8,82.8,25,82.9,25.3z M-79.7,15.2c-0.2,0.1-0.4,0.2-0.6,0.4
		c-0.1,0.1-0.3,0.2-0.4,0.2c0.1-0.1,0.2-0.1,0.4-0.2C-80.1,15.5-79.9,15.3-79.7,15.2z M-79.9,18.2c0.1,0,0.1-0.1,0.2-0.1
		C-79.8,18.1-79.8,18.1-79.9,18.2z"/>
</g>
</svg>
